<?xml version="1.0" encoding="UTF-8"?>
<svg id="Layer_2" data-name="Layer 2" xmlns="http://www.w3.org/2000/svg" viewBox="0 0 31.55 6.06">
  <defs>
    <style>
      .cls-1 {
        fill-rule: evenodd;
      }

      .cls-1, .cls-2 {
        fill: #f5f9f9;
        stroke-width: 0px;
      }

      .cls-3 {
        isolation: isolate;
      }
    </style>
  </defs>
  <g id="Shape_5" data-name="Shape 5" class="cls-3">
    <g>
      <path class="cls-2" d="M10.42,4.99h2.29v1h-3.52V.07h1.23v4.93ZM19.01,3.03c0,.43-.07.83-.22,1.2-.14.37-.35.69-.62.96-.26.27-.58.48-.96.64-.37.15-.79.23-1.24.23s-.87-.08-1.24-.23c-.37-.16-.69-.37-.96-.64-.27-.27-.47-.59-.62-.96-.14-.37-.22-.77-.22-1.2s.07-.83.22-1.2c.15-.37.35-.69.62-.96.27-.27.59-.48.96-.63.37-.16.79-.23,1.24-.23s.87.08,1.24.23c.37.15.69.36.96.64.27.27.47.59.62.96.15.37.22.77.22,1.2ZM17.75,3.03c0-.31-.04-.59-.12-.83-.08-.25-.2-.46-.36-.63-.15-.17-.34-.31-.56-.4-.22-.09-.47-.14-.74-.14s-.53.05-.75.14c-.22.09-.41.22-.56.4-.15.17-.27.38-.35.63-.08.25-.12.52-.12.83s.04.59.12.84c.08.25.2.45.35.62.16.17.34.3.56.4.22.09.47.13.75.13s.53-.04.74-.13c.22-.09.41-.22.56-.4.16-.17.27-.38.36-.62.08-.25.12-.53.12-.84ZM24.82,5.42c-.3.22-.62.38-.97.49-.34.1-.7.15-1.08.15-.49,0-.93-.07-1.32-.22-.4-.15-.73-.36-1.01-.63-.28-.27-.5-.59-.65-.96-.15-.37-.23-.77-.23-1.21s.07-.85.22-1.22c.15-.37.36-.69.62-.96.27-.27.6-.48.98-.62.38-.15.81-.22,1.29-.22.25,0,.47.02.69.06.21.04.41.09.59.16.18.07.34.15.49.24.15.1.29.2.41.31l-.36.55c-.05.09-.13.14-.21.16-.09.02-.18,0-.29-.07-.1-.06-.19-.11-.29-.16-.09-.05-.19-.09-.3-.13-.11-.04-.22-.06-.35-.08-.13-.02-.27-.03-.43-.03-.27,0-.52.05-.75.14s-.41.23-.57.4c-.16.17-.27.38-.36.63-.08.24-.13.52-.13.82,0,.33.05.62.14.88.09.26.22.47.39.65.17.18.37.31.6.4.24.09.5.14.79.14.2,0,.37-.02.52-.06.16-.04.31-.1.45-.16v-1h-.67c-.08,0-.14-.02-.19-.06-.04-.04-.07-.1-.07-.16v-.68h2.03v2.45ZM31.55,3.03c0,.43-.07.83-.22,1.2-.14.37-.35.69-.62.96-.26.27-.58.48-.96.64-.37.15-.79.23-1.24.23s-.87-.08-1.24-.23c-.37-.16-.69-.37-.96-.64-.27-.27-.47-.59-.62-.96-.14-.37-.22-.77-.22-1.2s.07-.83.22-1.2c.15-.37.35-.69.62-.96.27-.27.59-.48.96-.63.37-.16.79-.23,1.24-.23s.87.08,1.24.23c.37.15.69.36.96.64.27.27.47.59.62.96.15.37.22.77.22,1.2ZM30.29,3.03c0-.31-.04-.59-.12-.83-.08-.25-.2-.46-.36-.63-.15-.17-.34-.31-.56-.4-.22-.09-.47-.14-.74-.14s-.53.05-.75.14c-.22.09-.41.22-.56.4-.15.17-.27.38-.35.63-.08.25-.12.52-.12.83s.04.59.12.84c.08.25.2.45.35.62.16.17.34.3.56.4.22.09.47.13.75.13s.53-.04.74-.13c.22-.09.41-.22.56-.4.16-.17.27-.38.36-.62.08-.25.12-.53.12-.84Z"/>
      <path class="cls-1" d="M1.9,2.83c.36,0,.65-.29.65-.64s-.3-.64-.65-.64-.65.29-.65.64.3.64.65.64ZM1.9,1.78c.24,0,.42.2.42.41s-.18.41-.42.41-.42-.17-.42-.41.21-.41.42-.41ZM6.82.27H.12c-.06,0-.12.06-.12.12v5.08c0,.06.06.12.12.12h6.71c.06,0,.12-.06.12-.12V.39c0-.06-.06-.12-.12-.12ZM6.71,5.32H.24V.51h6.47v4.82ZM.83,4.89s.06,0,.09-.03l1.96-1.65,1.22,1.19s.06.03.09.03.06,0,.09-.03c.06-.03.06-.12,0-.15l-.56-.55,1.1-1.16,1.34,1.19s.06.03.09.03.06,0,.09-.03c.06-.06.03-.12,0-.17l-1.45-1.28s-.06-.03-.09-.03-.06.03-.09.03l-1.19,1.25-.53-.55s-.06-.06-.09-.06-.06,0-.09.03l-2.02,1.71c-.06.03-.06.12,0,.17,0,.03.03.06.06.06Z"/>
    </g>
  </g>
</svg>